<svg xmlns="http://www.w3.org/2000/svg" viewBox="0 0 98 96" width="98" height="96">
    <path fill-rule="evenodd" clip-rule="evenodd" d="M48.854 0C21.839 0 0 22 0 49.217c0 21.756 13.993 40.172 33.405 46.69 2.427.49 3.316-1.059 3.316-2.362 0-1.141-.08-5.052-.08-9.127-13.59 2.934-16.42-5.867-16.42-5.867-2.184-5.704-5.42-7.17-5.42-7.17-4.448-3.015.324-3.015.324-3.015 4.934.326 7.523 5.062 7.523 5.062 4.367 7.501 11.409 5.333 14.16 4.07.404-3.178 1.699-5.335 3.074-6.556-10.842-1.221-22.247-5.454-22.247-24.27 0-5.373 1.943-9.773 5.098-13.193-.485-1.221-2.184-6.269.486-13.03 0 0 4.125-1.304 13.426 5.052a46.97 46.97 0 0 1 12.214-1.63c4.125 0 8.33.571 12.213 1.63 9.302-6.356 13.427-5.052 13.427-5.052 2.67 6.76 .97 11.81.485 13.03 3.155 3.42 5.097 7.82 5.097 13.193 0 18.898-11.447 22.969-22.328 24.189 1.78 1.547 3.316 4.481 3.316 9.126 0 6.6-.08 11.897-.08 13.526 0 1.304.89 2.853 3.316 2.364 19.412-6.52 33.405-24.935 33.405-46.691C97.707 22 75.788 0 48.854 0z" fill="#000"/>
</svg>
